<svg aria-hidden="true" style="position: absolute; width: 0; height: 0; overflow: hidden;" version="1.1" xmlns="http://www.w3.org/2000/svg" xmlns:xlink="http://www.w3.org/1999/xlink">
<defs>

<symbol id="icon-buy-now-close" viewBox="0 0 32 32">
<path stroke-linejoin="round" stroke-linecap="round" stroke-miterlimit="4" stroke-width="2.2857" d="M24 8l-16 16"></path>
<path stroke-linejoin="round" stroke-linecap="round" stroke-miterlimit="4" stroke-width="2.2857" d="M8 8l16 16"></path>
</symbol>

<symbol id="ukraine-flag" viewBox="0 0 24 19">
<path d="M23.874 0.293945H0.182129V17.9251H23.874V0.293945Z" fill="#FFD700"/>
<path fill-rule="evenodd" clip-rule="evenodd" d="M0.182129 0.293945H23.874V9.10951H0.182129V0.293945Z" fill="#0057B7"/>
</symbol>

<symbol id="icon-mastercard-large" viewBox="0 0 44 30" >
<path fill-rule="evenodd" clip-rule="evenodd" d="M22 21.8343C20.4022 23.2053 18.3295 24.033 16.0647 24.033C11.0111 24.033 6.91431 19.9122 6.91431 14.829C6.91431 9.74576 11.0111 5.625 16.0647 5.625C18.3295 5.625 20.4022 6.45267 22 7.82371C23.5979 6.45267 25.6705 5.625 27.9354 5.625C32.989 5.625 37.0857 9.74576 37.0857 14.829C37.0857 19.9122 32.989 24.033 27.9354 24.033C25.6705 24.033 23.5979 23.2053 22 21.8343Z" fill="#ED0006"/>
<path fill-rule="evenodd" clip-rule="evenodd" d="M22 21.8343C23.9674 20.1461 25.215 17.6341 25.215 14.829C25.215 12.0239 23.9674 9.51189 22 7.82371C23.5978 6.45267 25.6705 5.625 27.9354 5.625C32.989 5.625 37.0857 9.74576 37.0857 14.829C37.0857 19.9122 32.989 24.033 27.9354 24.033C25.6705 24.033 23.5978 23.2053 22 21.8343Z" fill="#F9A000"/>
<path fill-rule="evenodd" clip-rule="evenodd" d="M22.0001 21.8343C23.9675 20.1461 25.2151 17.6342 25.2151 14.8291C25.2151 12.024 23.9675 9.51202 22.0001 7.82384C20.0327 9.51202 18.7851 12.024 18.7851 14.8291C18.7851 17.6342 20.0327 20.1461 22.0001 21.8343Z" fill="#FF5E00"/>
</symbol>

<symbol id="icon-mastercard-small" viewBox="0 0 32 21">
<path fill-rule="evenodd" clip-rule="evenodd" d="M16 15.284C14.8379 16.2437 13.3305 16.8231 11.6834 16.8231C8.00802 16.8231 5.02856 13.9385 5.02856 10.3803C5.02856 6.82203 8.00802 3.9375 11.6834 3.9375C13.3305 3.9375 14.8379 4.51687 16 5.47659C17.1621 4.51687 18.6695 3.9375 20.3166 3.9375C23.992 3.9375 26.9714 6.82203 26.9714 10.3803C26.9714 13.9385 23.992 16.8231 20.3166 16.8231C18.6695 16.8231 17.1621 16.2437 16 15.284Z" fill="#ED0006"/>
<path fill-rule="evenodd" clip-rule="evenodd" d="M16 15.284C17.4309 14.1023 18.3382 12.3438 18.3382 10.3803C18.3382 8.41672 17.4309 6.65832 16 5.47659C17.1621 4.51687 18.6695 3.9375 20.3166 3.9375C23.992 3.9375 26.9714 6.82203 26.9714 10.3803C26.9714 13.9385 23.992 16.8231 20.3166 16.8231C18.6695 16.8231 17.1621 16.2437 16 15.284Z" fill="#F9A000"/>
<path fill-rule="evenodd" clip-rule="evenodd" d="M16 15.2839C17.4309 14.1022 18.3382 12.3438 18.3382 10.3802C18.3382 8.41668 17.4309 6.65829 16 5.47656C14.5692 6.65829 13.6619 8.41668 13.6619 10.3802C13.6619 12.3438 14.5692 14.1022 16 15.2839Z" fill="#FF5E00"/>
</symbol>

</defs>
</svg>
